<svg width="78" height="14" viewBox="0 0 78 14" fill="none" xmlns="http://www.w3.org/2000/svg">
  <path d="M1.90625 2.28125H0.195312V0.570312H5.28125V2.28125H3.6875V12.2656H5.39844V14H0.335938V12.2656H1.90625V2.28125ZM10.2266 0.546875L14.0703 8V0.570312H15.9453V14H14.5391L10.2969 5.60938V14H8.51562V0.570312L10.2266 0.546875ZM21.5703 2.23438V6.3125H25.3438V2.23438H21.5703ZM27.2188 14H25.3438V8H21.5703V14H19.7891V0.570312H27.2188V14ZM33.4062 12.3125H38.3047V14H31.0625V12.3125L36.6172 2.30469H31.0625V0.570312H38.4922V2.375L33.4062 12.3125ZM49.7656 0.570312V14H42.3359V0.570312H44.1172V12.3125H47.8906V0.570312H49.7656ZM61.0391 14H59.1172V2.23438H55.3906V14H53.6094V0.570312H66.5703V14H64.6953V2.23438H61.0391V14ZM72.1719 2.23438V6.3125H75.9453V2.23438H72.1719ZM77.8203 14H75.9453V8H72.1719V14H70.3906V0.570312H77.8203V14Z" fill="#FFFFFF"/>
</svg>
